<?xml version="1.0" encoding="utf-8"?>
<!-- Generator: Adobe Illustrator 22.1.0, SVG Export Plug-In . SVG Version: 6.00 Build 0)  -->
<svg version="1.1" xmlns="http://www.w3.org/2000/svg" xmlns:xlink="http://www.w3.org/1999/xlink" x="0px" y="0px"
	 viewBox="0 0 300 300" style="enable-background:new 0 0 300 300;" xml:space="preserve">
<style type="text/css">
	.st0{fill:#FFFFFF;stroke:#000000;stroke-width:2;stroke-miterlimit:10;}
	.st1{fill:#BC6C25;}
	.st2{fill:none;stroke:#FFFFFF;stroke-width:2;stroke-linecap:round;stroke-linejoin:round;stroke-miterlimit:10;}
	.st3{fill:#FEFAE0;stroke:#000000;stroke-width:2;stroke-miterlimit:10;}
	.st4{fill:none;stroke:#000000;stroke-width:2;stroke-linecap:round;stroke-linejoin:round;stroke-miterlimit:10;}
	.st5{fill:#FFFFFF;stroke:#000000;stroke-width:2;stroke-linecap:round;stroke-linejoin:round;stroke-miterlimit:10;}
	.st6{fill:none;stroke:#000000;stroke-width:4;stroke-linecap:round;stroke-linejoin:round;stroke-miterlimit:10;}
	.st7{fill:#DDA15E;stroke:#000000;stroke-width:2;stroke-miterlimit:10;}
	.st8{fill:#FEFAE0;}
	.st9{stroke:#000000;stroke-width:2;stroke-miterlimit:10;}
</style>
<g id="LowerBody">
	<path id="Sock" class="st0" d="M182.5,248.5c0,0,14.3-10.9,19-11.9s12.5,0,17.2,2.7c4.7,2.7,15,1.7,17.8,2c2.8,0.3,9,1.5,10,4.2
		s-1.8,8.8-11.8,10.5c0,0-27.6,3-32.3,4.7c-4.8,1.7-11.1,6-11.1,6L182.5,248.5z"/>
	<path id="Pants" class="st1" d="M112.9,206.2c0,0-53.7,29.4-58.5,35.2c-4.8,5.8-10.4,13.9-9.3,22.6c1.2,8.4,9,18.6,17.1,20.6
		s4.9,2.7,21.8,3.1c7.7,0.2,9.1,2.4,17.2,3.4s24.1,4,49.5-4.8c31.9-11.1,42.3-19.5,42.3-19.5s0.1-0.2,0.1-0.5
		c1.6-5.8-0.6-12-5.4-15.6c-1.1-0.8-3.9-1.9-3.9-1.9l0.1-2.5c0,0,7.1-6.7,10-14.9c2.9-8.2,4-11.6,3.2-19.9
		c-0.8-8.4-3.5-10.4-3.5-10.4L112.9,206.2z"/>
	<path id="PantsKnee" class="st2" d="M87.9,287.2c0,0-6.6-1.7-8.4-9.5c-1.6-6.5-1.8-10.3,0-16"/>
	<g>
		<line id="Pants1" class="st2" x1="137.7" y1="263" x2="182.8" y2="247.8"/>
		<line id="Pants2" class="st2" x1="141.9" y1="265.7" x2="144" y2="260.9"/>
	</g>
	<g>
		<path id="LaptopK_1_" class="st0" d="M48.8,236.6c0,0,0.2,0,0.5,0c6,0.5,64.3,5.2,69.1,4.8c5.1-0.4,27.5-14,27.5-14
			s3.6-2.1,2.1-3.6s-30.5-6.1-30.5-6.1l-64.6-1.3l-11.9,2.8l0.6,9.7c0,0-0.3,5,1.5,6.2c1.8,1.2,5.9,1.4,5.9,1.4"/>
		<path id="LaptopM" class="st0" d="M27,177.2l65.8,3c0,0,6.5,0.8,7.2,4.4c0,0,19.5,45.5,19.3,47.4c-0.2,1.9-1.5,3.9-3.8,4.6
			c0,0-68.7-1.5-73.5-4.7s-9.6-17.3-9.6-17.3L21,188.7c0,0-1.8-3.2,0.1-7.3C23,177.2,27,177.2,27,177.2z"/>
	</g>
</g>
<g id="Hair">
	<polygon id="Hair_1_" points="113.4,137.2 132.3,85.8 147.7,85.8 150,91.8 	"/>
</g>
<g id="Face_1_">
	<path id="Face_2_" class="st3" d="M148.8,86.8c-0.6-2.1-4.3-1-4.3-1s-8.8,1-12.6-0.6c-3.8-1.6-9.5-9.4-9.5-21.7c0.1-32.3,0-32,0-32
		l49.5-9.2l11,20.4l6.5,13.2l2.5,10.3l-12.5,21.2l-5.6,0.9h-24.5L148.8,86.8z"/>
	<line id="Ear" class="st4" x1="183.7" y1="59.9" x2="178.8" y2="63.4"/>
	<path id="Nose" class="st4" d="M133.3,50c0,0-0.3,8.8-1.5,10.8c0,0,2.3,0.9,3.6,0.9c0.2,0,0.3,0,0.4,0"/>
	<path id="Mouth" class="st5" d="M142.5,67.6c2.1-0.4,6.3-0.4,6.8,1c0.6,1.4-0.9,5.2-5.7,6.1c-4.8,0.9-8.3-3.2-7.9-4.7
		S140.4,68,142.5,67.6z"/>
	<path id="EyebrowR" class="st4" d="M158.4,40.8c0,0-3.4-2.4-10.7-1.9"/>
	<line id="EyebrowL" class="st4" x1="132.4" y1="39.5" x2="123.7" y2="39.8"/>
	<line id="EyeL" class="st6" x1="128" y1="48.6" x2="128" y2="50"/>
	<line id="EyeR" class="st6" x1="148.9" y1="47.9" x2="149.2" y2="49.4"/>
</g>
<g id="Arm__x26__Shirt">
	<path id="Shirt" class="st7" d="M149.1,87.9c0,0,0.1,6.5-4.8,10.2c-6.7,5.1-10.8,4.6-15.9,11.5c-5.2,6.9-6.7,12.4-6.9,14.1
		c-0.1,1.8-1.7,5.1-6.7,11.5c-5,6.4-8.6,13.7-5.3,22.1c1,2.6,4.8,5.7,4.8,10.5l-0.7,37.8c0,0,25.5,9.3,47.7,6.7
		c22.2-2.7,32.2-11.3,32.2-11.3L183,170.5l16.4-60.2c0,0-18.3-10.7-19.7-13.1l-4.1-9.5L149.1,87.9z"/>
	<path id="ShirtNeck" class="st4" d="M144.5,94.8c0,0,1.1,3.4,6.1,4s15.4,0.6,22.2-0.8c3.7-0.8,5.9-2.6,5.9-2.6"/>
	<path id="ArmR" class="st3" d="M197.3,109.3c4.1,1.7,7.2,3.3,8,9.7s-9.5,58.7-15.7,66.5s-70.3,46.3-70.3,46.3l-7.9-20.1
		c0,0,8.8,2.8,12.3,0.9s42.6-36,44.5-40.3s11.1-45,12.2-51.6c0.7-4.6,5.3-9.1,7.9-10.8C190.5,109.1,193.6,107.8,197.3,109.3z"/>
	<g id="ArmL">
		<path class="st8" d="M99.5,183.8l14.6-16.7c0,0,0.1,0,0.2,0l-0.4,27.9l-7.1,4.7L99.5,183.8z"/>
		<path d="M114.9,167.6L114.9,167.6L114.9,167.6 M113.2,169.5l-0.3,24.8l-5.7,3.8l-6.6-14.2L113.2,169.5 M114.4,166
			c-0.4,0-0.8,0.1-1,0.3l-15.1,17.3l8.1,17.5l8.5-5.7l0.4-29C115.3,166.1,114.9,166,114.4,166L114.4,166z"/>
	</g>
</g>
<g id="HairFull">
	<path id="HairFull_1_" class="st9" d="M166.5,27.7c0,0-2.2,8-10.3,8.8c0,0-38.7,4-41.5,0c0,0-3.5-3.2,0-10.7S126.2,8,136.3,6.2
		s19.8-1,19.8-1s23,2.5,30,8.5s9.5,8.5,10.2,17.2c0.7,8.7-2.5,19.2-0.7,27.8s3.9,25.2,12.3,40.7s13.9,25.7,12,35
		c-1.8,9.3-1.2,14.2-8.2,20c-7,5.8-11.3,6.6-12.5,7c-1.2,0.4,7.1-35.3,7.2-39.8c0.1-4.5-0.3-5.2-2.8-8.7c-2.5-3.5-15.6-9.7-15.6-9.7
		s-5.8-2.3-8.4-5.7c-1.1-1.5-2.2-3.5-3.1-5.3c-1.8-3.6-2.8-7.6-2.7-11.7c0.1-2.6,0.6-5.4,2.1-7.3c3.7-4.7,8.7-6,10.8-7.8
		c2.2-1.8,2.1-4.8-1-7.6l-5.7-0.1c0,0-0.8,5.7-1.9,7.6c-1.1,1.9-2.4,3.1-5.4,1.8c-3-1.4-4.3-7-4.5-10.7s-1.3-22-1.3-22L166.5,27.7z"
		/>
</g>
</svg>
