<?xml version="1.0" encoding="utf-8"?>
<!-- Generator: Adobe Illustrator 22.1.0, SVG Export Plug-In . SVG Version: 6.00 Build 0)  -->
<svg version="1.1" xmlns="http://www.w3.org/2000/svg" xmlns:xlink="http://www.w3.org/1999/xlink" x="0px" y="0px"
	 viewBox="0 0 300 300" style="enable-background:new 0 0 300 300;" xml:space="preserve">
<style type="text/css">
	.st0{fill:none;stroke:#231F20;stroke-width:2;stroke-linecap:round;stroke-linejoin:round;stroke-miterlimit:10;}
	.st1{fill:#FEFAE0;stroke:#000000;stroke-width:2;stroke-linecap:round;stroke-linejoin:round;stroke-miterlimit:10;}
	.st2{stroke:#000000;stroke-width:2;stroke-linecap:round;stroke-linejoin:round;stroke-miterlimit:10;}
	.st3{fill:#BC6C25;}
	.st4{fill:none;stroke:#FFFFFF;stroke-width:3;stroke-linecap:round;stroke-linejoin:round;stroke-miterlimit:10;}
	.st5{fill:none;stroke:#000000;stroke-width:3;stroke-linecap:round;stroke-linejoin:round;stroke-miterlimit:10;}
	.st6{fill:none;stroke:#000000;stroke-width:2;stroke-linecap:round;stroke-linejoin:round;stroke-miterlimit:10;}
</style>
<g id="Body">
	<path class="st0" d="M161.3,24.4"/>
	<path class="st0" d="M143.8,71"/>
	<path class="st1" d="M159.4,34.5c0,0,3.3,2.8,2.9,5.7c-0.4,2.5,0.7,5.7,2.8,7.2c2.1,1.5,3.2,2.8,1.9,4.5c-1.3,1.7-2.5,2-2.7,3.3
		c0,0-0.8,3.5-2.8,3.6c0,0-4.3,0.2-4.3,1c0,0,0.2,1.8,2,4.2c1.8,2.3,1.3,3.4-0.7,4.7c0,0-1.3,1.3-4.3,1.5c-3,0.2-4.3-0.4-4.3,1.1V73
		c0.5,3.7,2.7,6.7,5.9,6.7c2.1,0,13.5-0.7,19.7,0.9c9.1,2.4,10.7,9.7,17.6,20.4c7.3,11.2,10.6,15.7,12.8,14.2c2.2-1.5,1-4.5-0.6-7.9
		c-1.7-3.6-11.7-17.1-11.7-17.1c-0.4-0.5-0.7-1-1-1.7c-1.6-3.2-0.5-7.2,2.5-9.3l0.4-0.3c2.6-1.8,6.1-1.9,8.6,0.1
		c0.6,0.5,1.1,1,1.5,1.6c5.2,8.8,14.1,22,15.6,28.7c2,8.8-1.3,25.4-14.8,21.9c-8.4-2.2-19.9-10.8-23.8-14.8
		c-6.2-6.3-7.3-10.4-7.9-2.7s-2.1,27.9-3.1,39.1c-0.1,0.9,13.8,33.4,13.8,33.4c0.1,0.2,0.1,0.3,0.2,0.5l34,99.1l-13.7,7.6
		c-3.2-3.3-10-12.5-26.1-42.5c-16.5-30.7-23.5-53-23.5-53l-4.9-16c-0.8-2.5-3.2-4-5.7-3.5l-2.8,0.5c-2.2,0.4-3.9,2.2-4.1,4.5
		l-2.4,22.7c-1.5,10.5-4.2,18.9-14.4,29c-4.7,4.6-17.4,11.2-27.5,10.1s-17.7-9.9-20.6-14.1c-4.8-6.8-17.9-34.3-22.1-43.1l8.8-10.1
		c9,9.7,26.4,28.2,31.2,32.8s11.3,9,13.5,0.4c3-11.4,4.3-53.1,4.4-56.7c0-0.2,0-0.3,0-0.5l-3.6-49c-0.2-2.7-2.4-4.7-5.1-4.7
		c-4.6,0-11.9,0.2-18.3,0.5c-10.3,0.5-15.1,6.1-14.8,12.5c0.3,4.7,3.1,7.4,8.4,10.8c6.4,4.1,11.5,6.6,11.5,6.6s3.9,2.5,5,5.7
		c1.3,3.9-3.1,10-9.2,9.6c-3.3-0.2-33.9-13.7-31.5-37s31.7-28,31.7-28c14.3-3.3,36.8-2,41.3-2c1.1,0,2.2-0.3,3-0.5
		c1.2-0.4,2.2-1.4,2.5-2.7c0.4-1.4,0.1-3.8,0.1-5.4c0-2.4-1.3-3.5-1.3-3.5S125,56.5,129,49.1S152,30,152,30L159.4,34.5z"/>
	<path id="Hair" class="st2" d="M129.3,66.8c0,0-6.3-5.8-7.2-11.8c0,0-0.3-5,1-8.8c0,0,1.3-1.8,3.7-6.1c2.3-4.3,2.7-9.5,10.7-10.3
		s9.8-0.8,13.8-3.5s8.8-1.2,11-0.3c0,0,2.1,0.7,1.7,2.9c-0.4,2.3-1.8,5.3-4.5,5.6c-2.7,0.3-11.4,1.9-14.5,8.3
		c-3.1,6.3-3.5,6.8-7.3,10.9c0,0-1.7-1.5-4.3-1.7c-2.6-0.2-3.3,1.4-3.6,3c0,0,0.2,2.4,1.5,4.8c1.3,2.4,1.7,3,1,4.3
		C131.7,65.3,129.3,66.8,129.3,66.8z"/>
</g>
<g id="Colored_Clothes">
	<path class="st3" d="M51.9,190.6l10-12.9c0,0-1.3-1.6-4.4-1.6c0,0-3.2-0.6-9.4,6.1s-6.3,5.9-6.7,8.1c0,0,0,1.8,1.1,2.1
		s3.3-0.1,4.4-1c0,0,2.9-2.2,3.4-2.3S51.9,190.6,51.9,190.6z"/>
	<path class="st3" d="M204.1,293l15.8-8.3l1,1c0.1,0,7.3-0.2,7.5,0.8c0.2,1.1,0.7,1.8-0.8,2.9s-13.8,7.6-17.8,7.3
		S204.1,293,204.1,293z"/>
	<path class="st3" d="M114.7,77.7l11.4,0.2c0,0,2.6,8.6,5.5,12.1c2.8,3.5,7.9,4.6,10.6,4.6s6.1,1,10.9-3.9
		c4.8-4.9,4.7-12.1,4.7-12.1l9.5,0c0,0-0.1,26,1,29.5c1.2,3.4,4.6,7.7,7.2,9.5l-2.6,35.7l-64.4,1.3l-2.8-37.4c0,0,4.8-0.7,7.5-3.4
		c2.7-2.8,2.1-16.4,2.1-16.4L114.7,77.7z"/>
</g>
<g id="Pants">
	<path id="Main" d="M108.5,154.6l-7.5,46.3c0,0,8.8,5.8,19.3,7.8s20.2,2,20.2,2s2.3-19.8,4.3-22.9c1.1-1.7,2.3,0.5,2.3,0.5l6.8,22.4
		c0,0,14.3-1.4,21.5-4.7s17.5-9.3,17.5-9.3l-20.1-43.5L108.5,154.6z"/>
	<g id="Band">
		<line class="st4" x1="114.4" y1="158.3" x2="114.4" y2="162.2"/>
		<line class="st4" x1="121.2" y1="157.8" x2="121.2" y2="162.6"/>
		<line class="st4" x1="127.7" y1="158.3" x2="127.7" y2="161.8"/>
		<line class="st4" x1="134" y1="158.3" x2="134" y2="162.2"/>
		<line class="st4" x1="140" y1="158.3" x2="140.6" y2="162.6"/>
		<line class="st4" x1="144.7" y1="158.6" x2="145.3" y2="162.2"/>
		<line class="st4" x1="151" y1="158.3" x2="152.1" y2="161.4"/>
		<line class="st4" x1="157.1" y1="158.3" x2="157.1" y2="161.8"/>
		<line class="st4" x1="162.3" y1="158.3" x2="163.3" y2="161.4"/>
		<line class="st4" x1="168.5" y1="156.7" x2="169.9" y2="161"/>
	</g>
	<path class="st4" d="M114.4,167c0,0-2.3,27-7.3,30.8"/>
	<line class="st4" x1="173.1" y1="165.6" x2="184" y2="192.1"/>
	<line class="st4" x1="156" y1="182.8" x2="150" y2="183.3"/>
	<line class="st4" x1="140.6" y1="183.3" x2="134" y2="186.3"/>
</g>
<g id="Details">
	<line id="KneeL2" class="st5" x1="104.7" y1="231.5" x2="105" y2="237.1"/>
	<line id="KneeL1" class="st5" x1="98.8" y1="233.8" x2="101" y2="239.3"/>
	<path id="KneeR2" class="st5" d="M193.3,232.8c0.1,1.6-2.1,4.4-4.1,4.9"/>
	<line id="KneeR1" class="st5" x1="195.8" y1="237.3" x2="194.1" y2="240.7"/>
	<path id="Eye2" class="st6" d="M148.2,45.6c0,0,0.4,1.3,2.9,1.5s3.3-2.1,3.3-2.1"/>
	<path id="Eye1" class="st6" d="M159.1,44.2c0,0,0.6,1.1,2.8,1"/>
	<line id="Ear" class="st6" x1="133.3" y1="55.9" x2="136.3" y2="58.6"/>
	<path id="Sweat" class="st6" d="M143.1,51.8v3.8c0,0,0.1,0.7,1.3,0.8s1.2-1.7,1.2-1.7l0-5.5"/>
	<path id="Finger" class="st6" d="M198,96l0.7-9.2c0,0,0-2.5,1.8-2.4s2.9,1.8,3,4.8c0,0,2.2-0.4,3.7,0.5c0.9,0.6,1.9,3.6,1.9,3.6"/>
</g>
</svg>
